HIERARCHY
ROOT Hips
{
    OFFSET 0.0 0.0 0.0
    CHANNELS 6 Xposition Yposition Zposition Zrotation Xrotation Yrotation
    JOINT LeftUpLeg
    {
        OFFSET 15.750334854661881 0.0 0.0
        CHANNELS 3 Zrotation Xrotation Yrotation
        JOINT LeftLeg
        {
            OFFSET 0.0 0.0 -58.29644637139788
            CHANNELS 3 Zrotation Xrotation Yrotation
            JOINT LeftFoot
            {
                OFFSET 0.0 0.0 -41.805230515241774
                CHANNELS 3 Zrotation Xrotation Yrotation
                JOINT LeftToeBase
                {
                    OFFSET 0.0 -13.727054775281008 0.0
                    CHANNELS 3 Zrotation Xrotation Yrotation
                    End Site
                    {
                        OFFSET 0 0 0
                    }
                }
            }
        }
    }
    JOINT RightUpLeg
    {
        OFFSET -15.750334854661881 0.0 0.0
        CHANNELS 3 Zrotation Xrotation Yrotation
        JOINT RightLeg
        {
            OFFSET 0.0 0.0 -58.29644637139788
            CHANNELS 3 Zrotation Xrotation Yrotation
            JOINT RightFoot
            {
                OFFSET 0.0 0.0 -41.805230515241774
                CHANNELS 3 Zrotation Xrotation Yrotation
                JOINT RightToeBase
                {
                    OFFSET 0.0 -13.727054775281008 0.0
                    CHANNELS 3 Zrotation Xrotation Yrotation
                    End Site
                    {
                        OFFSET 0 0 0
                    }
                }
            }
        }
    }
    JOINT Spine
    {
        OFFSET 0.0 0.0 11.871116600577771
        CHANNELS 3 Zrotation Xrotation Yrotation
        JOINT Spine1
        {
            OFFSET 0.0 0.0 11.506810270961148
            CHANNELS 3 Zrotation Xrotation Yrotation
            JOINT Spine2
            {
                OFFSET 0.0 0.0 11.506810270961148
                CHANNELS 3 Zrotation Xrotation Yrotation
                JOINT Spine3
                {
                    OFFSET 0.0 0.0 11.506810270961143
                    CHANNELS 3 Zrotation Xrotation Yrotation
                    JOINT Spine4
                    {
                        OFFSET 0.0 0.0 11.506810270961152
                        CHANNELS 3 Zrotation Xrotation Yrotation
                        JOINT RightShoulder
                        {
                            OFFSET -25.317765758917815 0.0 0.0
                            CHANNELS 3 Zrotation Xrotation Yrotation
                            JOINT RightArm
                            {
                                OFFSET -36.97224116394695 0.0 0.0
                                CHANNELS 3 Zrotation Xrotation Yrotation
                                JOINT RightForeArm
                                {
                                    OFFSET -33.54746299510779 0.0 0.0
                                    CHANNELS 3 Zrotation Xrotation Yrotation
                                    JOINT RightHand
                                    {
                                        OFFSET -12.437139123643384 0.0 0.0
                                        CHANNELS 3 Zrotation Xrotation Yrotation
                                        End Site
                                        {
                                            OFFSET 0 0 0
                                        }
                                    }
                                }
                            }
                        }
                        JOINT LeftShoulder
                        {
                            OFFSET 25.317765758917815 0.0 0.0
                            CHANNELS 3 Zrotation Xrotation Yrotation
                            JOINT LeftArm
                            {
                                OFFSET 36.97224116394695 0.0 0.0
                                CHANNELS 3 Zrotation Xrotation Yrotation
                                JOINT LeftForeArm
                                {
                                    OFFSET 33.54746299510779 0.0 0.0
                                    CHANNELS 3 Zrotation Xrotation Yrotation
                                    JOINT LeftHand
                                    {
                                        OFFSET 12.437139123643384 0.0 0.0
                                        CHANNELS 3 Zrotation Xrotation Yrotation
                                        End Site
                                        {
                                            OFFSET 0 0 0
                                        }
                                    }
                                }
                            }
                        }
                        JOINT Neck
                        {
                            OFFSET 0.0 0.0 11.506810249385502
                            CHANNELS 3 Zrotation Xrotation Yrotation
                            JOINT Head
                            {
                                OFFSET 0.0 0.0 26.592541984949452
                                CHANNELS 3 Zrotation Xrotation Yrotation
                                End Site
                                {
                                    OFFSET 0 0 0
                                }
                            }
                        }
                    }
                }
            }
        }
    }
}
MOTION
Frames: 4
Frame Time: 0.03333333333333333
50.33186166286469 5.911863961815834 408.48833484649657 161.11772656370417 -84.94324987552042 158.61282253677254 -8.699098947705753 12.912074457737349 -0.9715803793351951 -5.688145313474316 5.424674472315056 -19.24965548449133 -63.94539064679261 -3.1805546814635168e-15 53.2075137149002 0.0 0.0 0.0 9.67915404758468 12.889789504011972 9.271586648324934 -53.98180759678263 -27.9810325446924 -22.8798934606758 117.82684620247062 1.2722218725854067e-14 -79.57453109918983 0.0 0.0 0.0 0.10928106822011002 2.702377787685732 0.11428098589655304 0.0 0.0 0.0 0.0 0.0 0.0 0.0 0.0 0.0 0.0 0.0 0.0 125.93000279238508 5.157525261959086 -139.2127130517852 101.72746810426013 -9.952627766474923e-15 2.1525481133373437e-15 2.174175182728014e-15 48.089345047735996 -9.700370610894745e-16 0.0 0.0 3.1805546814635168e-15 176.56453821892575 10.799552168635104 -176.91941150482046 -34.49454833386118 -1.2434921280541904e-14 -3.8604970717109605e-15 180.0 -71.27390805026334 180.0 7.951386703658792e-16 -9.655420026984722e-33 -1.3914926731402886e-15 -9.587765851049955 3.5299180894385447e-15 -5.018940144572171e-16 3.975693351829396e-16 0.0 0.0
50.33186166286469 5.911863961815834 408.48833484649657 161.11772656370417 -84.94324987552042 158.61282253677254 -8.699098947705753 12.912074457737349 -0.9715803793351951 -5.688145313474316 5.424674472315056 -19.24965548449133 -63.94539064679261 -3.1805546814635168e-15 53.2075137149002 0.0 0.0 0.0 9.67915404758468 12.889789504011972 9.271586648324934 -53.98180759678263 -27.9810325446924 -22.8798934606758 117.82684620247062 1.2722218725854067e-14 -79.57453109918983 0.0 0.0 0.0 0.10928106822011002 2.702377787685732 0.11428098589655304 0.0 0.0 0.0 0.0 0.0 0.0 0.0 0.0 0.0 0.0 0.0 0.0 125.93000279238508 5.157525261959086 -139.2127130517852 101.72746810426013 -9.952627766474923e-15 2.1525481133373437e-15 2.174175182728014e-15 48.089345047735996 -9.700370610894745e-16 0.0 0.0 3.1805546814635168e-15 176.56453821892575 10.799552168635104 -176.91941150482046 -34.49454833386118 -1.2434921280541904e-14 -3.8604970717109605e-15 180.0 -71.27390805026334 180.0 7.951386703658792e-16 -9.655420026984722e-33 -1.3914926731402886e-15 -9.587765851049955 3.5299180894385447e-15 -5.018940144572171e-16 3.975693351829396e-16 0.0 0.0
50.33186166286469 5.911863961815834 408.48833484649657 161.11772656370417 -84.94324987552042 158.61282253677254 -8.699098947705753 12.912074457737349 -0.9715803793351951 -5.688145313474316 5.424674472315056 -19.24965548449133 -63.94539064679261 -3.1805546814635168e-15 53.2075137149002 0.0 0.0 0.0 9.67915404758468 12.889789504011972 9.271586648324934 -53.98180759678263 -27.9810325446924 -22.8798934606758 117.82684620247062 1.2722218725854067e-14 -79.57453109918983 0.0 0.0 0.0 0.10928106822011002 2.702377787685732 0.11428098589655304 0.0 0.0 0.0 0.0 0.0 0.0 0.0 0.0 0.0 0.0 0.0 0.0 125.93000279238508 5.157525261959086 -139.2127130517852 101.72746810426013 -9.952627766474923e-15 2.1525481133373437e-15 2.174175182728014e-15 48.089345047735996 -9.700370610894745e-16 0.0 0.0 3.1805546814635168e-15 176.56453821892575 10.799552168635104 -176.91941150482046 -34.49454833386118 -1.2434921280541904e-14 -3.8604970717109605e-15 180.0 -71.27390805026334 180.0 7.951386703658792e-16 -9.655420026984722e-33 -1.3914926731402886e-15 -9.587765851049955 3.5299180894385447e-15 -5.018940144572171e-16 3.975693351829396e-16 0.0 0.0
50.71422085762025 6.360445591807365 408.39836425781255 161.2052600273521 -84.78473194681649 158.53291664259459 -8.821708596929243 12.972146214040318 -0.3923221638381907 -8.414914726624758 8.10276581541428 -20.14879941510083 -58.87509272390637 -3.1805546814635168e-15 51.3832036997428 0.0 0.0 0.0 12.003686173656353 14.98130399014993 7.680625289582732 -67.18991983995451 -32.332159076138204 -31.00283528583019 124.4738409208625 -9.54166404439055e-15 -82.95453789199249 0.0 0.0 3.1805546814635168e-15 0.10865230437074468 2.7157436726193516 0.2701153674640987 0.0 0.0 0.0 0.0 0.0 0.0 0.0 0.0 0.0 0.0 0.0 0.0 125.35761475899426 4.65976727328053 -139.02740878341004 100.81849271064415 3.88849011648164e-15 5.279426006829476e-15 2.220269961878079e-15 49.404845778561054 -1.0213238379163842e-15 0.0 0.0 0.0 176.428350041783 9.598595661365641 -177.08614986906076 -34.590580035986655 -7.30887963599039e-15 -3.941389839612069e-15 -180.0 -69.3139342360703 -180.0 7.951386703658792e-16 -8.276074308844047e-33 -1.1927080055488188e-15 -9.573644134421667 -2.1842856516620408e-14 -2.627058520113897e-15 -7.951386703658791e-16 5.517382872562698e-33 -7.951386703658791e-16
